<svg width="0" height="0" class="hidden">
  <symbol fill="none" xmlns="http://www.w3.org/2000/svg" viewBox="0 0 14 13" id="goitheard">
    <path d="M7 12.88l-.98-.98C2.38 8.68 0 6.51 0 3.85 0 1.68 1.68 0 3.85 0 5.04 0 6.23.56 7 1.47 7.77.56 8.96 0 10.15 0 12.32 0 14 1.68 14 3.85c0 2.66-2.38 4.83-6.02 8.05l-.98.98z" fill="#FF6B08"></path>
  </symbol>
  <symbol fill="none" xmlns="http://www.w3.org/2000/svg" viewBox="0 0 24 24" id="filmlogo">
    <path d="M19.82 2H4.18A2.18 2.18 0 002 4.18v15.64A2.18 2.18 0 004.18 22h15.64A2.18 2.18 0 0022 19.82V4.18A2.18 2.18 0 0019.82 2zM7 2v20M17 2v20M2 12h20M2 7h5M2 17h5m10 0h5M17 7h5" stroke="#818181" stroke-width="2" stroke-linecap="round" stroke-linejoin="round"></path>
  </symbol>
  <symbol fill="none" xmlns="http://www.w3.org/2000/svg" viewBox="0 0 12 12" id="search">
    <path d="M5.5 9.5a4 4 0 100-8 4 4 0 000 8zm5 1L8.325 8.325" stroke="#fff" stroke-linecap="round" stroke-linejoin="round"></path>
  </symbol>
  <symbol id="icon-logout" viewBox="0 0 24 24">
<path fill="#f57c01" style="fill: var(--color1, #f57c01)" d="M30.061 14.939l-5.657-5.657c-0.271-0.271-0.646-0.439-1.061-0.439s-0.789 0.168-1.061 0.439v0c-0.271 0.271-0.439 0.646-0.439 1.061s0.168 0.789 0.439 1.061l3.096 3.096h-16.379c-0.828 0-1.5 0.672-1.5 1.5v0c0 0.828 0.672 1.5 1.5 1.5v0h16.379l-3.096 3.096c-0.27 0.271-0.436 0.645-0.436 1.058 0 0.828 0.672 1.5 1.5 1.5 0.413 0 0.787-0.167 1.058-0.437l5.657-5.657c0.271-0.271 0.439-0.646 0.439-1.061s-0.168-0.789-0.439-1.061v0z"></path>
<path fill="#ff9800" style="fill: var(--color2, #ff9800)" d="M19 24.5c-0.828 0-1.5 0.672-1.5 1.5v0 1.5h-13v-23h13v1.5c0 0.828 0.672 1.5 1.5 1.5s1.5-0.672 1.5-1.5v0-2c0-1.381-1.119-2.5-2.5-2.5v0h-14c-1.381 0-2.5 1.119-2.5 2.5v0 24c0 1.381 1.119 2.5 2.5 2.5v0h14c1.381 0 2.5-1.119 2.5-2.5v0-2c0-0.828-0.672-1.5-1.5-1.5v0z"></path>
<path fill="#000" style="fill: var(--color3, #000)" d="M23.343 23.656c-0 0-0 0-0.001 0-1.104 0-1.999-0.895-1.999-1.999 0-0.552 0.224-1.052 0.586-1.414l2.243-2.243h-15.172c-1.105 0-2-0.895-2-2s0.895-2 2-2v0h15.172l-2.243-2.243c-0.362-0.362-0.586-0.862-0.586-1.414 0-1.105 0.895-2 2-2 0.552 0 1.052 0.224 1.414 0.586l5.657 5.657c0.362 0.362 0.586 0.862 0.586 1.414s-0.224 1.052-0.586 1.414l-5.657 5.657c-0.361 0.362-0.86 0.585-1.411 0.585-0.001 0-0.002 0-0.003 0h0zM9 15c-0.552 0-1 0.448-1 1s0.448 1 1 1v0h16.379c0 0 0 0 0 0 0.276 0 0.5 0.224 0.5 0.5 0 0.138-0.056 0.263-0.146 0.354l-3.096 3.096c-0.181 0.181-0.293 0.431-0.293 0.707 0 0.552 0.448 1 1 1 0.276 0 0.526-0.112 0.707-0.293l5.657-5.657c0.181-0.181 0.293-0.431 0.293-0.707s-0.112-0.526-0.293-0.707l-5.657-5.657c-0.182-0.189-0.437-0.306-0.72-0.306-0.552 0-1 0.448-1 1 0 0.283 0.117 0.538 0.306 0.72l0 0 3.096 3.096c0.091 0.091 0.147 0.216 0.147 0.354 0 0.276-0.224 0.5-0.5 0.5-0 0-0 0-0 0v0z"></path>
<path fill="#000" style="fill: var(--color3, #000)" d="M18 31h-14c-1.656-0.002-2.998-1.344-3-3v-24c0.002-1.656 1.344-2.998 3-3h14c1.656 0.002 2.998 1.344 3 3v2c0 1.105-0.895 2-2 2s-2-0.895-2-2v0-1h-12v22h12v-1c0-1.105 0.895-2 2-2s2 0.895 2 2v0 2c-0.002 1.656-1.344 2.998-3 3h-0zM4 2c-1.104 0.001-1.999 0.896-2 2v24c0.001 1.104 0.896 1.999 2 2h14c1.104-0.001 1.999-0.896 2-2v-2c0-0.552-0.448-1-1-1s-1 0.448-1 1v0 1.5c0 0.276-0.224 0.5-0.5 0.5v0h-13c-0.276 0-0.5-0.224-0.5-0.5v0-23c0-0.276 0.224-0.5 0.5-0.5v0h13c0.276 0 0.5 0.224 0.5 0.5v0 1.5c0 0.552 0.448 1 1 1s1-0.448 1-1v0-2c-0.001-1.104-0.896-1.999-2-2h-0z"></path>
</symbol>
</svg>